<svg width="512" height="512" xmlns="http://www.w3.org/2000/svg">
  <!-- 背景 -->
  <rect width="512" height="512" rx="100" fill="#FF6B9D"/>

  <!-- 心形 -->
  <path d="M256 128
           C 256 128, 156 96, 196 96,
           C 236 96, 256 128, 256 128
           C 256 128, 276 96, 316 96,
           C 356 96, 376 128, 376 128
           C 376 128, 396 96, 416 96,
           C 356 96, 336 128, 256 128
           C 176 128, 156 96, 136 96,
           C 76 96, 96 128, 96 128
           C 96 128, 116 96, 136 96,
           C 156 96, 176 128, 256 128"
        fill="white" opacity="0.9"/>

  <!-- 文字 -->
  <text x="256" y="300"
        font-family="Arial, sans-serif"
        font-size="48"
        font-weight="bold"
        fill="white"
        text-anchor="middle"
        dominant-baseline="middle">
    亲密时光
  </text>

  <!-- 装饰 -->
  <circle cx="128" cy="200" r="8" fill="white" opacity="0.3"/>
  <circle cx="384" cy="200" r="12" fill="white" opacity="0.3"/>
  <circle cx="180" cy="350" r="6" fill="white" opacity="0.3"/>
  <circle cx="332" cy="350" r="10" fill="white" opacity="0.3"/>
</svg>